<svg id="Layer_1" enable-background="new 0 0 512 512" height="512" viewBox="0 0 512 512" width="512" xmlns="http://www.w3.org/2000/svg"><g><path d="m379.5 78.8-23.4-11-26 70.5-3.8 10.4c.8 3.7 3.3 8.1 6.5 12.1z"/><path d="m360.7 198.2s.1-.1.1-.1c.1-.1.3-.2.4-.3 1.9-1.9 2.3-6.7-.2-13.8l-6.3 2.3s0 0-.1 0-.1 0-.1 0-.1 0-.1 0c-.2.1-.5.1-.7.2h-.1c-.1 0-.1 0-.2 0-.3 0-.5.1-.8.1-.1 0-.2 0-.2 0-7.6-.3-16.6-5.2-24.6-13.4-7.6-7.7-12.7-16.8-13.7-24.2 0-.1 0-.1 0-.2v-.1c0-.1 0-.1 0-.2s0-.3 0-.4 0-.2 0-.2c0-.1 0-.2 0-.3s0-.2 0-.3 0-.2 0-.3 0-.2.1-.3c0-.1 0-.1.1-.2 0-.1.1-.3.1-.4v-.1l2.5-6.8c-7.7-3.1-13-2.7-15-.7-4.5 4.5.5 22.6 18.6 40.7 17.5 17.4 34.9 22.7 40.2 19z"/><path d="m341.5 169.2c-.1 0-.1.1 0 0 2.7 2.5 6 4.2 9.6 5.2l100.6-72-24.8-24.8z"/><path d="m393.6 74.3c.5 1.6.3 3.3-.5 4.8l-25.2 44.2 54.5-58.4c2.3-2.4 6.1-2.6 8.5-.3.1 0 .1.1.2.1l2.7 2.7 12.1-11.1-42.2-26.3-19.7 37.6 6.5 3.1c1.5.7 2.6 2 3.1 3.6z"/><path d="m360.6 210.9c-1.4.3-2.9.4-4.4.4-12.5 0-29.1-8.5-44.2-23.6-17-17-25.6-35.9-23.2-48.6-3.3-1.1-6.7-2.1-10.1-2.8-10.5-1.6-21.2-1.7-31.7-.2-3.7 16.8 3 38.7 16.2 51.4 2.4 2.3 2.5 6.1.2 8.5s-6.1 2.5-8.5.2c-14.8-14.2-22.7-37.2-20.5-57-14 4.6-25.8 14.2-32.9 27.1l-.1.1-136 225.3c.6 7.1 3.9 13 10.4 18.3 2.6 2.1 3 5.9.9 8.4-2.1 2.6-5.9 3-8.4.9-4.7-3.7-8.5-8.3-11.3-13.6l-38.2 63.2c-2 3.5-1.4 7.9 1.5 10.6 2.8 2.9 7.2 3.5 10.6 1.5l98.4-59.4c-6.5-3.4-12.3-8-16.9-13.7-2.1-2.6-1.7-6.3.9-8.4s6.3-1.7 8.4.9c4.6 5.6 12.7 12.2 21.1 13.2l184.9-111.6c-22.1-7.9-38.7-21.2-52.6-41.8-1.9-2.7-1.1-6.5 1.6-8.3s6.5-1.1 8.3 1.6c14.2 21.1 31.5 33.5 55.8 40.1 24.1-18.8 25.7-49.1 22.4-72.2-.5-3.9-1.4-7.2-2.6-10.5zm-149.3 85.8c-2.1 2.6-5.9 2.9-8.4.8-15.3-12.7-26.9-29.3-33.6-48.1-1.1-3.1.6-6.5 3.7-7.6s6.5.6 7.6 3.7c6 16.7 16.3 31.4 29.9 42.8 2.6 2.1 3 5.9.8 8.4z"/><path d="m487 99.7-33.6 16.2-61.7 44.2 102.6-37.3z"/></g></svg>