<svg version="1.1" id="Layer_1" xmlns="http://www.w3.org/2000/svg" xmlns:xlink="http://www.w3.org/1999/xlink" x="0px" y="0px" style="enable-background:new 0 0 512 512;" xml:space="preserve" viewBox="0 149.28 512.02 213.45">
<g>
	<path style="fill:#9B5E42;" d="M183.187,299.777c6.084-11.407,11.21-30.466,1.074-56.489c-0.097-0.257-0.217-0.488-0.333-0.711   l-0.671-1.291l1.203-1.476c0.837-1.027,1.657-2.034,2.458-2.986l2.625-3.117l1.182,3.9c4.231,13.958,13.216,30.314,22.888,41.671   l1.015,1.192l-0.787,1.355c-3.089,5.31-15.626,15.42-27.783,21.001l-5.963,2.738L183.187,299.777z"/>
	<path style="fill:#9B5E42;" d="M211.933,280.714c-2.754,4.733-14.873,14.63-26.794,20.104c6.613-12.396,11.456-31.959,1.183-58.333   c-0.122-0.321-0.276-0.63-0.431-0.928c0.929-1.139,1.836-2.256,2.72-3.306C193.133,253.169,202.467,269.6,211.933,280.714z"/>
</g>
<g>
	<path style="fill:#C47652;" d="M41.178,311.065c26.361-16.537,56.892-43.996,83.829-68.222c10.641-9.569,20.691-18.607,28.726-25.3   c17.406-14.507,34.472-16.674,43.096-16.674c3.068,0,4.887,0.278,5.084,0.31c0.336,0.055,0.668,0.083,0.999,0.083   c1.257,0,2.466-0.382,3.494-1.104c1.735-1.151,17.386-10.898,50.26-10.898c10.573,0,21.905,1.032,33.683,3.065   c47.23,8.154,74.881,9.035,84.577,9.035c2.779,0,4.459-0.067,5.051-0.096c20.615-0.121,57.643-16.371,61.797-18.223   c0.637-0.286,1.23-0.687,1.754-1.185l9.935-9.591l-0.349,13.539c-0.04,1.624,0.555,3.169,1.673,4.348   c1.118,1.178,2.629,1.849,4.253,1.888l0.113,0.001c3.347,0,6.039-2.601,6.126-5.921l0.095-4.845l3.451,2.579   c3.447,2.577,8.101,7.231,10.698,14.775c4.472,12.997,11.788,24.742,15.751,30.586l1.434,2.115l-1.941,0.942l-0.648,0.683   l-1.248-0.307c-4.679-1.151-14.046-4.401-22.274-7.728c-0.722-0.29-1.491-0.438-2.277-0.438c-0.499,0-0.999,0.061-1.484,0.18   l-35.381,8.846c-0.706,0.178-1.37,0.479-1.97,0.892c-50.015,34.417-77.788,43.377-78.045,43.451   c-2.176,0.69-3.822,2.63-4.144,4.929l-4.413,30.859l-4.27,0.439l-14.079-38.9l7.679-15.358c0.727-1.452,0.843-3.101,0.327-4.642   c-0.514-1.542-1.598-2.789-3.052-3.514c-0.854-0.428-1.766-0.644-2.712-0.644c-2.324,0-4.411,1.291-5.447,3.367l-9.302,18.616   l-1.484-0.115c-12.316-0.953-26.756-4.532-36.788-9.118l-1.929-0.881l0.8-1.964c4.848-11.911,3.994-22.891-2.609-33.566   c-1.117-1.803-3.053-2.881-5.181-2.881c-1.127,0-2.234,0.315-3.199,0.912c-1.378,0.854-2.344,2.196-2.717,3.781   c-0.373,1.584-0.107,3.216,0.748,4.596c11.095,17.912-3.494,34.729-23.72,54.85l-0.707,0.704c-0.459,0.457-0.912,0.907-1.355,1.358   l-3.523-2.601l1.128-2.09c1.433-2.655,0.73-5.91-1.672-7.741c-12.676-9.64-29.665-39.353-29.665-56.531   c0-2.173-1.176-4.196-3.066-5.279c-0.917-0.527-1.955-0.805-3.008-0.805c-1.083,0-2.149,0.292-3.084,0.845   c-6.934,4.076-13.769,12.762-22.421,23.76c-13.425,17.076-30.091,38.277-55.282,54.029c-21.331,13.331-44.516,20.161-70.879,20.883   l-8.1,0.221L41.178,311.065z"/>
	<path style="fill:#C47652;" d="M493.444,230.455c-0.022,0.011-0.033,0.033-0.044,0.044c-4.81-1.183-14.287-4.523-21.973-7.63   c-1.626-0.652-3.417-0.774-5.12-0.354l-35.387,8.847c-0.962,0.243-1.869,0.652-2.687,1.216   c-49.464,34.037-77.143,43.072-77.408,43.15c-3.041,0.962-5.275,3.583-5.717,6.747l-4.412,30.852l-13.757-38.007l7.254-14.509   c2.046-4.092,0.387-9.079-3.716-11.125c-4.092-2.046-9.079-0.387-11.125,3.716l-8.637,17.283   c-12.142-0.94-26.241-4.445-36.039-8.924c4.479-11.003,4.987-23.012-2.776-35.564c-2.411-3.893-7.52-5.097-11.423-2.687   c-3.893,2.411-5.098,7.531-2.687,11.423c10.24,16.532-3.881,32.699-23.399,52.118c-0.708,0.708-1.404,1.393-2.079,2.079l1.128-2.09   c1.946-3.605,0.973-8.073-2.278-10.55c-12.042-9.156-28.796-38.461-28.796-54.772c0-2.975-1.592-5.717-4.18-7.199   c-2.577-1.482-5.75-1.46-8.316,0.055c-7.298,4.291-14.254,13.137-23.068,24.339c-13.292,16.908-29.835,37.942-54.683,53.478   c-20.845,13.027-43.868,19.839-69.767,20.546c26.496-16.621,57.536-44.532,84.132-68.451c10.649-9.577,20.712-18.622,28.663-25.246   c23.046-19.208,45.516-16.023,46.412-15.879c2.134,0.354,4.335-0.144,6.115-1.393c0.254-0.166,25.5-17.273,82.296-7.464   c58.664,10.129,86.952,9.123,90.114,8.968c21.11-0.122,58.399-16.543,62.59-18.412c0.885-0.398,1.681-0.94,2.378-1.603l6.06-5.85   l-0.21,8.139c-0.111,4.578,3.494,8.393,8.084,8.504c4.567,0.088,8.382-3.494,8.504-8.073l0.011-0.553   c3.505,2.621,7.597,6.945,9.93,13.723C481.91,212.362,489.087,224.029,493.444,230.455z"/>
</g>
<path style="fill:#3D484A;" d="M510.264,225.489c1.946,2.521,2.289,5.938,0.863,8.78c-0.066,0.133-7.553,13.248-15.349,13.248  c-6.126,0-20.193-5.164-28.044-8.261l-31.339,7.84c-29.459,20.17-51.355,31.748-64.835,37.996l22.891,61.031h3.096  c4.578,0,8.294,3.716,8.294,8.294s-3.716,8.294-8.294,8.294H388.7c-3.461,0-6.547-2.145-7.763-5.385l-21.564-57.48l-5.142,36.039  c-1.471,10.251-10.384,17.981-20.734,17.981H309.08c-4.578,0-8.294-3.716-8.294-8.294c0-4.578,3.716-8.294,8.294-8.294h22.647  l-18.036-49.818c-15.659-0.542-34.314-5.043-47.274-11.246c-6.204,8.537-13.867,16.178-20.325,22.592  c-4.667,4.656-10.837,10.793-12.828,14.121l26.706,33.197h4.877c4.578,0,8.294,3.716,8.294,8.294c0,4.578-3.716,8.294-8.294,8.294  H256c-2.51,0-4.888-1.139-6.458-3.096l-40.916-50.868c-0.442-0.542-0.785-1.139-1.062-1.747c-0.254,0.166-0.498,0.343-0.763,0.52  c-5.275,3.561-17.726,11.202-30.123,13.215c1.349,9.488,4.014,19.396,5.795,25.39h2.754c4.578,0,8.294,3.716,8.294,8.294  s-3.716,8.294-8.294,8.294h-8.847c-3.55,0-6.712-2.256-7.851-5.618c-0.376-1.117-9.289-27.513-9.289-46.909  c0-2.521,1.15-4.899,3.107-6.48c0.807-0.664,19.098-16.278,11.268-46.677c-12.695,15.824-29.404,34.867-52.693,49.431  c-32.301,20.181-70.596,27.17-113.845,20.779C3.008,326.629,0,323.135,0,319.021c0-4.114,3.03-7.597,7.099-8.194  c24.826-3.627,73.073-46.998,108.294-78.669c10.771-9.687,20.944-18.832,29.139-25.655c23.864-19.894,47.916-20.414,56.497-19.85  c8.913-4.888,38.549-17.682,91.773-8.493c58.808,10.161,86.299,8.757,86.564,8.735c0.155-0.011,0.332-0.011,0.487-0.011  c14.298,0,43.161-11.324,54.739-16.388l19.584-18.888c2.422-2.333,6.016-2.975,9.101-1.615c3.074,1.349,5.032,4.434,4.943,7.796  l-0.232,9.167c5.131,2.112,19.053,9.311,25.136,27.004C498.83,210.571,510.153,225.345,510.264,225.489z M493.4,230.499  c0.011-0.011,0.022-0.033,0.044-0.044c-4.357-6.426-11.534-18.091-16.012-31.107c-2.333-6.779-6.425-11.103-9.93-13.723  l-0.011,0.553c-0.122,4.578-3.937,8.161-8.504,8.073c-4.589-0.111-8.194-3.926-8.084-8.504l0.21-8.139l-6.06,5.85  c-0.697,0.664-1.493,1.205-2.378,1.603c-4.191,1.869-41.48,18.29-62.59,18.412c-3.163,0.155-31.45,1.161-90.114-8.968  c-56.796-9.809-82.042,7.298-82.296,7.464c-1.78,1.25-3.981,1.747-6.115,1.393c-0.896-0.144-23.366-3.329-46.412,15.879  c-7.951,6.624-18.014,15.67-28.663,25.246c-26.595,23.919-57.636,51.83-84.132,68.451c25.899-0.708,48.922-7.52,69.767-20.546  c24.848-15.537,41.391-36.57,54.683-53.478c8.813-11.202,15.769-20.049,23.068-24.339c2.566-1.515,5.739-1.537,8.316-0.055  c2.588,1.482,4.18,4.224,4.18,7.199c0,16.311,16.753,45.616,28.796,54.772c3.251,2.477,4.224,6.945,2.278,10.55l-1.128,2.09  c0.675-0.686,1.371-1.371,2.079-2.079c19.518-19.418,33.639-35.586,23.399-52.118c-2.411-3.893-1.205-9.013,2.687-11.423  c3.904-2.411,9.013-1.205,11.423,2.687c7.763,12.552,7.254,24.561,2.776,35.564c9.798,4.479,23.897,7.984,36.039,8.924l8.637-17.283  c2.046-4.103,7.033-5.761,11.125-3.716c4.103,2.046,5.761,7.033,3.716,11.125l-7.254,14.509l13.757,38.007l4.412-30.852  c0.442-3.163,2.676-5.784,5.717-6.747c0.265-0.077,27.944-9.112,77.408-43.15c0.818-0.564,1.725-0.972,2.687-1.216l35.387-8.847  c1.703-0.42,3.494-0.299,5.12,0.354C479.113,225.975,488.59,229.315,493.4,230.499z M185.138,300.818  c11.921-5.474,24.041-15.371,26.794-20.104c-9.466-11.114-18.799-27.546-23.322-42.464c-0.885,1.051-1.791,2.167-2.72,3.306  c0.155,0.299,0.31,0.608,0.431,0.928C196.595,268.859,191.751,288.422,185.138,300.818z"/>
<g>
</g>
<g>
</g>
<g>
</g>
<g>
</g>
<g>
</g>
<g>
</g>
<g>
</g>
<g>
</g>
<g>
</g>
<g>
</g>
<g>
</g>
<g>
</g>
<g>
</g>
<g>
</g>
<g>
</g>
</svg>