<svg version="1.1" xmlns="http://www.w3.org/2000/svg" xmlns:cc="http://creativecommons.org/ns#" xmlns:dc="http://purl.org/dc/elements/1.1/" xmlns:rdf="http://www.w3.org/1999/02/22-rdf-syntax-ns#" viewBox="44.13 60.85 38.28 10.4">
 <g style="shape-inside:url(#rect835);white-space:pre" aria-label="vivant !">
  <g stroke-width=".26458" aria-label="&lt;geek/&gt;" fill="#ffffff">
   <path d="m44.143 66.485v-1.1112l4.0217-1.8944v0.97366l-3.2808 1.4393 3.2808 1.4499v0.99483z"/>
   <path d="m53.944 69.819q0 0.71966-0.42333 1.0689-0.42333 0.35983-1.3441 0.35983h-2.2013v-0.79375h2.3072q0.40216 0 0.58208-0.15875 0.17992-0.15875 0.17992-0.37042v-0.33866q0-0.24342-0.17992-0.381-0.17992-0.14817-0.58208-0.14817h-1.8309v-1.4605q-0.34925-0.1905-0.51858-0.55033-0.16933-0.35983-0.16933-0.93133v-0.26458q0-0.91016 0.43392-1.3017 0.4445-0.39158 1.3652-0.39158h2.2225v1.9579q0 0.80433-0.43392 1.2488-0.43392 0.4445-1.1536 0.4445h-0.84666v0.45508h0.8255q0.92075 0 1.3441 0.35983 0.42333 0.34925 0.42333 1.0689zm-1.7462-2.8046q0.1905 0 0.3175-0.0635 0.127-0.07408 0.20108-0.17992 0.08467-0.10583 0.11642-0.21167 0.04233-0.11642 0.05292-0.20108v-1.4076h-1.4287q-0.40216 0-0.60325 0.1905-0.1905 0.17992-0.1905 0.49742v0.68791q0 0.3175 0.1905 0.508 0.20108 0.17992 0.60325 0.17992h0.74083z"/>
   <path d="m57.501 69.449q-0.92075 0-1.3652-0.381-0.43392-0.39158-0.43392-1.3123v-1.905q0-0.91016 0.39158-1.3017t1.3017-0.39158h0.49742q0.762 0 1.143 0.42333 0.381 0.42333 0.381 1.2171v1.3758h-2.8152v0.79375q0 0.3175 0.1905 0.508 0.20108 0.17992 0.60325 0.17992h1.6827v0.79375zm-0.89958-3.0692h1.9367v-0.79375q0-0.27516-0.17992-0.45508t-0.45508-0.17992h-0.61383q-0.40216 0-0.55033 0.1905-0.13758 0.17992-0.13758 0.49742z"/>
   <path d="m63.206 69.449q-0.92075 0-1.3652-0.381-0.43392-0.39158-0.43392-1.3123v-1.905q0-0.91016 0.39158-1.3017t1.3017-0.39158h0.49742q0.762 0 1.143 0.42333 0.381 0.42333 0.381 1.2171v1.3758h-2.8152v0.79375q0 0.3175 0.1905 0.508 0.20108 0.17992 0.60325 0.17992h1.6827v0.79375zm-0.89958-3.0692h1.9367v-0.79375q0-0.27516-0.17992-0.45508t-0.45508-0.17992h-0.61383q-0.40216 0-0.55033 0.1905-0.13758 0.17992-0.13758 0.49742z"/>
   <path d="m69.863 69.449-1.5557-2.5823-0.27517 0.3175v2.2648h-0.89958v-7.4083h0.89958v4.0005l1.6616-1.8838h1.1324l-1.8415 2.0849 1.9897 3.2067z"/>
   <path d="m73.24 70.613h-0.889l3.7677-9.7366h0.889z"/>
   <path d="m78.373 68.337v-0.99483l3.3443-1.4499-3.3443-1.4393v-0.97366l4.0217 1.8944v1.1112z"/>
  </g>
 </g>
</svg>