<?xml version="1.0" encoding="iso-8859-1"?>
<!-- Generator: Adobe Illustrator 18.0.0, SVG Export Plug-In . SVG Version: 6.00 Build 0)  -->
<!DOCTYPE svg PUBLIC "-//W3C//DTD SVG 1.1//EN" "http://www.w3.org/Graphics/SVG/1.1/DTD/svg11.dtd">
<svg version="1.1" id="Capa_1" xmlns="http://www.w3.org/2000/svg" xmlns:xlink="http://www.w3.org/1999/xlink" x="0px" y="0px"
	 viewBox="0 0 41.094 41.094" style="enable-background:new 0 0 41.094 41.094;" xml:space="preserve">
<g fill="#ffffff">
	<path d="M5.451,32.083c-1.761-1.164-4.175-0.357-5.084,1.505c-0.875,1.791-0.157,4.204,1.844,4.765
		c0.284,0.08,0.619-0.275,0.417-0.542c-0.682-0.903-1.217-2.203-0.771-3.316c0.485-1.211,2.012-1.704,3.215-1.512
		C5.611,33.068,5.94,32.405,5.451,32.083z"/>
	<path d="M39.965,32.344c-1.325-1.099-3.04-0.809-4.37,0.051c-0.821-2.081-3.28-2.72-5.025-1.448
		c-0.297-1.143-1.188-2.157-2.345-2.583c-0.538-0.198-1.066-0.247-1.571-0.197c0.319-1.707,0.764-3.39,1.33-5.032
		c4.064,1.228,9.885,0.173,11.328-4.285c1.39-4.296-0.537-9.345-4.68-11.279c-9.535-4.453-15.617,9.575-8.193,15.477
		c-0.449,1.815-0.693,3.66-0.759,5.36c-0.667,0.272-1.259,0.732-1.716,1.325c-0.547-0.757-1.304-1.172-2.108-1.292
		c1.171-3.829-0.296-7.927-3.116-10.764c2.888-6.364-3.87-19.396-11.198-13.41c-3.306,2.7-2.975,7.625-1.15,11.082
		c2.352,4.457,6.837,5.182,11.064,3.041c2.832,2.687,3.607,6.359,3.171,10.102c-0.83,0.186-1.631,0.664-2.23,1.44
		c-0.113-2.156-3.689-3.627-5.324-1.287c-2.579-3.609-8.72-0.525-6.58,3.737c-0.963,0.393-1.72,1.261-2.044,2.325
		c-0.125,0.409,0.527,0.705,0.707,0.298c0.53-1.2,1.772-1.913,3.049-2.071c0.368-0.046,0.53-0.612,0.096-0.708
		c-0.378-0.083-0.744-0.081-1.096-0.03c-0.785-3.403,3.625-5.707,5.451-2.267c0.211,0.397,0.797,0.276,0.919-0.12
		c0.495-1.601,2.644-1.91,3.317-0.296c0.229,0.548,0.239,0.811,0.218,1.222c-0.471-0.056-0.944-0.043-1.342,0.03
		c-0.455,0.083-0.355,0.844,0.11,0.811c0.562-0.039,1.089,0.045,1.602,0.286c0.446,0.21,0.797,0.561,1.252,0.745
		c0.294,0.119,0.642-0.24,0.53-0.53c-0.145-0.375-0.407-0.658-0.733-0.868c0.009-0.012,0.02-0.017,0.028-0.03
		c0.438-0.699,1.252-1.284,2.091-1.492c0.196,0.25,0.581,0.341,0.753-0.028c0.007-0.015,0.012-0.03,0.019-0.045
		c0.806,0.049,1.532,0.538,1.848,1.723c0.188,0.707,1.069,0.576,1.308,0c0.637-1.536,2.387-2.13,3.648-1.045
		c0.609,0.524,0.831,1.037,0.961,1.685c-0.367-0.021-0.74-0.001-1.101,0.059c-0.547,0.091-0.42,0.995,0.131,0.967
		c0.47-0.025,0.887,0.06,1.288,0.19c0.138,0.142,0.328,0.22,0.508,0.192c0.331,0.143,0.659,0.304,1.003,0.475
		c0.381,0.19,0.924-0.224,0.637-0.637c-0.273-0.393-0.626-0.674-1.021-0.875c0.001-0.007,0.001-0.014,0.002-0.021
		c1.444-1.356,3.614-0.793,4.004,1.297c0.091,0.491,0.723,0.564,1.044,0.275c1.029-0.927,2.261-1.338,3.316-0.286
		c0.832,0.829,0.64,1.37,0.315,2.378c-0.148,0.459,0.428,0.924,0.839,0.645C41.616,35.633,41.234,33.397,39.965,32.344z
		 M17.779,15.999c-0.947-0.751-2.01-1.387-2.877-2.25c-1.212-1.205-2.193-2.619-2.994-4.125c-0.175-0.329-0.735-0.104-0.61,0.257
		c0.582,1.69,1.418,3.209,2.551,4.597c0.769,0.941,1.808,2.059,2.961,2.748c-3.824,0.644-7.023,0.915-9.037-3.199
		c-1.514-3.093-1.605-8.434,2.641-9.394c3.269-0.739,6.08,2.913,7.037,5.538C18.178,12.167,18.128,14.05,17.779,15.999z
		 M25.791,12.116c1.605-2.879,5.091-4.178,8.106-2.802c3.188,1.455,4.763,5.22,3.84,8.593c-1.119,4.087-5.779,4.029-9.287,3.954
		c1.021-2.562,2.677-4.695,3.759-7.177c0.139-0.32-0.187-0.826-0.553-0.553c-2.276,1.696-3.803,4.369-4.748,7.263
		C24.999,18.645,24.017,15.298,25.791,12.116z"/>
</g>
</svg>
