<svg version="1.1" xmlns="http://www.w3.org/2000/svg" xmlns:cc="http://creativecommons.org/ns#" xmlns:dc="http://purl.org/dc/elements/1.1/" xmlns:rdf="http://www.w3.org/1999/02/22-rdf-syntax-ns#" viewBox="18.15 85.58 90.38 17.08">
 <g style="shape-inside:url(#rect835);white-space:pre" aria-label="vivant !" fill="#000000">
  <path d="m20.987 102.08q-1.6426 0-1.6426-1.3009 0-0.58429 0.15434-1.5214 0.25356-1.6426 0.25356-1.9403 0-0.29766 0-0.3638-0.11024 0-0.54019 0.57326-0.42995 0.56224-0.54019 0.7276-0.33073 0.02205-0.452-0.29766-0.0441-0.09922-0.0441-0.19844 0-0.33073 0.3638-0.92604 0.3638-0.59531 0.94809-1.4552 0.59531-0.8599 1.2017-1.5434 1.345-1.5544 2.2931-1.5544 0.8158 0 0.8158 1.6316 0 0.95912-0.23151 2.2379-0.22049 1.2678-0.29766 1.7418-0.17639 1.0363-0.02205 1.0363 0.87092 0 2.4474-1.3339-0.09922-0.39688-0.09922-0.71658t0.0441-0.63941q0.0441-0.33073 0.12127-0.70556 0.07717-0.37483 0.16536-0.7717 0.0882-0.39688 0.18741-0.74965 0.22049-0.78273 0.33073-0.98116 0.11024-0.20946 0.3197-0.452 0.20946-0.25356 0.49609-0.48507 0.66146-0.52917 1.1024-0.52917t0.65044 0.23151q0.20946 0.22049 0.34175 0.58429 0.26458 0.74965 0.26458 1.7639 0 1.0032-0.79375 2.282 0.79375 1.4221 1.356 1.4221 0.90399 0 2.0395-1.2457 0.34175-0.37483 0.63941-0.82682 0.4961-0.03307 0.4961 0.4079 0 0.63941-1.0694 2.1056-1.0363 1.4111-2.1167 1.8852-0.3638 0.16537-0.70556 0.16537-1.83 0-2.9545-1.2237-2.271 2.0505-4.3105 2.745-0.67248 0.22049-1.2127 0.22049z"/>
  <path d="m40.103 89.519q-0.452 0.22049-0.98116 0.34175-0.51814 0.11024-0.90399 0.11024-0.38585 0-0.69453-0.08819-0.30868-0.09922-0.55122-0.27561-0.52917-0.38585-0.52917-0.92604 0-0.54019 0.18741-0.91502 0.19844-0.37483 0.56224-0.63941 0.78273-0.57326 1.8741-0.57326 1.1024 0 1.5985 0.452 0.50712 0.452 0.50712 1.0363 0 0.58429-0.30868 0.91502-0.30868 0.33073-0.76068 0.56224zm-8.4887 10.881q-0.23151-0.49609-0.23151-1.2127 0-0.7276 0.30868-1.5324 0.3197-0.80478 0.80478-1.5985 0.49609-0.80478 1.1024-1.5434 0.60634-0.74965 1.2016-1.3229 1.3119-1.2457 1.9293-1.2457 0.26458 0 0.58429 0.23151 0.33073 0.22049 0.41892 0.33073-1.6647 1.7859-2.1056 3.4506-0.14332 0.50712-0.14332 0.99219 0 0.47405 0.3638 0.8599 0.3638 0.37483 0.90399 0.37483 0.54019 0 1.0032-0.19844 0.47405-0.20946 0.92604-0.54019 0.89297-0.67248 1.5655-1.6757 0.49609-0.03307 0.49609 0.4079 0 0.3638-0.46302 1.1465-0.452 0.78273-0.90399 1.356-0.452 0.56224-1.0363 1.1135-0.57326 0.55121-1.2568 0.98116-1.5324 0.97014-3.153 0.97014-1.7088 0-2.3151-1.345z"/>
  <path d="m42.022 102.08q-1.6426 0-1.6426-1.3009 0-0.58429 0.15434-1.5214 0.25356-1.6426 0.25356-1.9403 0-0.29766 0-0.3638-0.11024 0-0.54019 0.57326-0.42995 0.56224-0.54019 0.7276-0.33073 0.02205-0.452-0.29766-0.0441-0.09922-0.0441-0.19844 0-0.33073 0.3638-0.92604t0.94809-1.4552q0.59531-0.8599 1.2017-1.5434 1.345-1.5544 2.2931-1.5544 0.8158 0 0.8158 1.6316 0 0.95912-0.23151 2.2379-0.22049 1.2678-0.29766 1.7418-0.17639 1.0363-0.02205 1.0363 0.87092 0 2.4474-1.3339-0.09922-0.39688-0.09922-0.71658t0.0441-0.63941q0.0441-0.33073 0.12127-0.70556 0.07717-0.37483 0.16536-0.7717 0.0882-0.39688 0.18741-0.74965 0.22049-0.78273 0.33073-0.98116 0.11024-0.20946 0.3197-0.452 0.20946-0.25356 0.4961-0.48507 0.66146-0.52917 1.1024-0.52917 0.44097 0 0.65044 0.23151 0.20946 0.22049 0.34175 0.58429 0.26458 0.74965 0.26458 1.7639 0 1.0032-0.79375 2.282 0.79375 1.4221 1.356 1.4221 0.90399 0 2.0395-1.2457 0.34175-0.37483 0.63941-0.82682 0.49609-0.03307 0.49609 0.4079 0 0.63941-1.0694 2.1056-1.0363 1.4111-2.1167 1.8852-0.3638 0.16537-0.70556 0.16537-1.83 0-2.9545-1.2237-2.271 2.0505-4.3105 2.745-0.67248 0.22049-1.2127 0.22049z"/>
  <path d="m58.999 99.915q-1.5103 1.7639-3.6821 1.7639-1.378 0-2.2049-0.82683-0.8158-0.8158-0.8158-2.1497 0-1.6867 1.3229-3.2742 1.2788-1.5434 3.3514-2.5135 2.1497-1.0032 4.4428-1.0032 0.87092 0 1.2457 0.27561 0.29766-0.35278 0.52917-0.4079 0.24254-0.06615 0.37483-0.06615 0.41892 0 0.89297 0.12127-0.0441 0.14332-0.18741 0.4961-0.14332 0.34175-0.3197 0.8158-0.17639 0.47405-0.37483 1.0363-0.71658 2.0064-0.71658 3.0096 0 0.99219 0.62839 0.99219 0.8158 0 1.819-0.73863 0.89297-0.67248 1.5655-1.6757 0.4961-0.03307 0.4961 0.4079 0 0.37483-0.46302 1.1465-0.452 0.7717-0.88194 1.3339-0.42995 0.56224-0.95912 1.1024-0.52917 0.5402-1.1245 0.97014-1.3339 0.9481-2.6017 0.9481-1.6096 0-2.1608-0.97014-0.17639-0.29766-0.17639-0.51815 0-0.23151 0-0.27561zm-3.153-3.0096q0 1.2788 1.0694 1.2788 1.1796 0 2.7781-1.9072 0.84887-1.0142 1.4773-1.9403 0.63941-0.92604 0.97014-1.4111-2.7561 0.02205-4.5751 1.2568-1.7198 1.1686-1.7198 2.723z"/>
  <path d="m69.02 101.26q0 0.44097-0.73863 0.44097-1.83 0-2.6017-1.4552-0.28663-0.51814-0.28663-1.2347 0-0.71658 0.20946-1.4221 0.20946-0.71658 0.56224-1.4111 0.35278-0.69453 0.8158-1.345 0.46302-0.65044 0.98116-1.2017 1.0914-1.1686 2.0726-1.6426 0.26458-0.12127 0.47404-0.12127 0.22049 0 0.3638 0.01103 0.3638 0.03307 0.54019 0.27561-0.67248 1.4221-1.1024 2.6017 1.9623-1.9293 4.5641-2.6348 0.84887-0.23151 1.4773-0.23151 0.63941 0 0.73863 0.24254 0.09922 0.23151 0.09922 0.42995 0 0.19844-0.05512 0.54019-0.05512 0.33073-0.28663 0.92604-0.23151 0.59531-0.47404 1.2017-0.61736 1.5434-0.61736 2.1056 0 0.97014 0.69453 0.97014 1.1906 0 2.6238-1.5655 0.41892-0.452 0.76068-0.97014 0.4961-0.03307 0.4961 0.4079 0 0.35278-0.452 1.1686-0.452 0.80478-0.87092 1.4001-0.4079 0.58429-0.92604 1.1465-0.51814 0.56224-1.1355 1.0142-1.345 0.98117-2.6238 0.98117t-1.9403-0.67248-0.66146-1.9623q0-1.9072 1.9844-4.5641 0.60634-0.80478 0.52917-0.80478-0.83785 0-2.3592 1.0583-1.5103 1.0583-2.3041 2.249-0.50712 2.0615-0.55122 4.068z"/>
  <path d="m82.26 101.69q-3.5168 0-3.5168-2.9876 0-2.0836 2.7671-5.7767-0.27561-0.08819-0.50712-0.15434-0.23151-0.06615-0.37483-0.11024-0.14332-0.05512-0.17639-0.16536-0.03307-0.11024-0.02205-0.25356 0.0441-0.33073 0.15434-0.52917l1.6647 0.27561q1.9513-2.3702 3.3624-3.2522 0.42995-0.26458 0.60634-0.26458t0.30868 0.05512q0.14332 0.0441 0.28663 0.12127 0.30868 0.16536 0.48507 0.38585-1.4883 1.4552-2.7892 3.3404 2.5246 0.44097 3.0868 0.47405-0.29766 1.1796-0.68351 1.1796-0.94809 0-3.1199-0.51814-1.0914 1.819-1.0914 3.0207 0 1.6536 2.2269 1.6536 2.4915 0 4.101-2.4143 0.49609-0.03307 0.49609 0.4079 0 0.38585-0.46302 1.1576-0.46302 0.76068-0.92604 1.3229-0.46302 0.56224-1.0694 1.1135-0.60634 0.54019-1.345 0.97014-1.6096 0.94809-3.4616 0.94809z"/>
  <path d="m98.808 97.181q0.58429-3.7813 2.1718-6.7028 0.54019-1.0032 1.0804-1.6426 0.54019-0.65043 1.0694-1.1906 0.52916-0.55122 1.1355-1.0032 1.4221-1.0583 2.5797-1.0583 0.58429 0 1.1024 0.63941 0.58429 0.71658 0.58429 1.5985 0 0.73863-1.1135 1.4662-0.50711 0.33073-1.1686 0.68351t-1.378 0.79375q-0.70556 0.44097-1.4221 1.0142-0.71658 0.56224-1.3229 1.3229-1.3891 1.7198-1.7639 4.0459-0.11024 0-0.3638 0.0441-0.25356 0.03307-0.51814 0.05512-0.67248 0.07717-0.67248-0.06615zm-1.0363 5.1814q-0.3638-0.26458-0.50712-0.52916-0.14332-0.25356-0.14332-0.63941 0-0.38586 0.26458-0.8158 0.26458-0.42995 0.70556-0.77171 1.0032-0.76068 2.0946-0.76068 1.0914 0 1.5875 0.452 0.50712 0.452 0.50712 1.1796 0 0.82683-1.2788 1.5214-1.1686 0.63941-2.1608 0.63941-0.69453 0-1.0694-0.27561z"/>
 </g>
</svg>